# xmcd CD database file
#
# Track frame offsets:
#	150
#	32432
#	53591
#	71853
#	90610
#	124583
#	139248
#	162652
#
# Disc length: 2483 seconds
#
# Revision: 0
# Processed by: cddbd v1.5.2PL0 Copyright (c) Steve Scherf et al.
# Submitted via: CDex 1.60beta1-cs1
#
DISCID=6b09b108
DTITLE=Clare Fischer - First Time Out
DYEAR=1900
DGENRE=Jazz
TTITLE0=Nigerian Walk
TTITLE1=Toddler
TTITLE2=Stranger
TTITLE3=Afterfact
TTITLE4=Free Too Long
TTITLE5=Piece For Scotty
TTITLE6=Blues for Home
TTITLE7=I love You
EXTD=
EXTT0=
EXTT1=
EXTT2=
EXTT3=
EXTT4=
EXTT5=
EXTT6=
EXTT7=
PLAYORDER=
